<svg width="200" height="200" viewBox="0 0 200 200" xmlns="http://www.w3.org/2000/svg">
  <path d="M100 60 
           C115 60, 130 75, 130 90 
           C145 90, 160 105, 160 120 
           C160 135, 145 150, 130 150 
           C130 165, 115 180, 100 180 
           C85 180, 70 165, 70 150 
           C55 150, 40 135, 40 120 
           C40 105, 55 90, 70 90 
           C70 75, 85 60, 100 60 Z" 
        fill="#FFFFFF" />
  
  <circle cx="100" cy="120" r="18" fill="#D87093" />
  
  <path d="M40 20 L48 40 L68 48 L48 56 L40 76 L32 56 L12 48 L32 40 Z" fill="#F4D03F" />
  
  <circle cx="165" cy="175" r="12" fill="#FFFFFF" opacity="0.8" />
</svg>
