<svg width="644" height="644" viewBox="0 0 644 644" fill="none" xmlns="http://www.w3.org/2000/svg">
<circle cx="321.902" cy="321.902" r="267.654" transform="rotate(13.2578 321.902 321.902)" fill="#FF7E1D"/>
<path d="M305.804 136.075C305.837 137.146 305.599 138.286 305.012 139.452C304.418 140.632 303.457 141.849 302.073 142.975C300.687 144.102 298.941 145.081 296.902 145.795C294.866 146.508 292.631 146.922 290.338 146.992C288.044 147.062 285.788 146.784 283.712 146.196C281.634 145.607 279.832 144.736 278.38 143.696C276.929 142.656 275.897 141.499 275.232 140.358C274.575 139.229 274.268 138.106 274.236 137.035" stroke="#413D45" stroke-width="13.6824" stroke-linecap="round" stroke-linejoin="round"/>
<path d="M362.567 134.348C362.6 135.419 362.362 136.559 361.775 137.726C361.181 138.905 360.221 140.123 358.836 141.249C357.45 142.375 355.704 143.354 353.665 144.068C351.629 144.781 349.394 145.196 347.101 145.265C344.807 145.335 342.552 145.057 340.475 144.469C338.397 143.881 336.595 143.01 335.143 141.969C333.692 140.93 332.66 139.773 331.996 138.632C331.338 137.503 331.031 136.38 330.999 135.308" stroke="#413D45" stroke-width="13.6824" stroke-linecap="round" stroke-linejoin="round"/>
<path d="M407.873 153.555C403.356 160.051 396.579 166.1 387.853 171.328C379.126 176.556 368.648 180.844 356.994 183.917C345.341 186.989 332.778 188.775 320.03 189.163C307.282 189.551 294.634 188.531 282.816 186.173C270.997 183.815 260.277 180.171 251.249 175.483C242.221 170.795 235.089 165.169 230.185 158.96" stroke="#413D45" stroke-width="13.6824" stroke-linecap="round" stroke-linejoin="round"/>
</svg>
